Coordinates
version=1
nRows=6
nColumns=63
inDegrees=yes

Units are S.I. units (second, meters, Newtons, ...)
If the header above contains a line with 'inDegrees', this indicates whether rotational values are in degrees (yes) or radians (no).

endheader
time	pelvis_tilt	pelvis_list	pelvis_rotation	pelvis_tx	pelvis_ty	pelvis_tz	hip_flexion_r	hip_adduction_r	hip_rotation_r	knee_angle_r	knee_angle_r_beta	ankle_angle_r	subtalar_angle_r	mtp_angle_r	hip_flexion_l	hip_adduction_l	hip_rotation_l	knee_angle_l	knee_angle_l_beta	ankle_angle_l	subtalar_angle_l	mtp_angle_l	L5_S1_Flex_Ext	L5_S1_Lat_Bending	L5_S1_axial_rotation	L4_L5_Flex_Ext	L4_L5_Lat_Bending	L4_L5_axial_rotation	L3_L4_Flex_Ext	L3_L4_Lat_Bending	L3_L4_axial_rotation	L2_L3_Flex_Ext	L2_L3_Lat_Bending	L2_L3_axial_rotation	L1_L2_Flex_Ext	L1_L2_Lat_Bending	L1_L2_axial_rotation	L1_T12_Flex_Ext	L1_T12_Lat_Bending	L1_T12_axial_rotation	Abs_r3	Abs_r2	Abs_r1	Abs_t1	Abs_t2	neck_flexion	neck_bending	neck_rotation	arm_flex_r	arm_add_r	arm_rot_r	elbow_flex_r	pro_sup_r	wrist_flex_r	wrist_dev_r	arm_flex_l	arm_add_l	arm_rot_l	elbow_flex_l	pro_sup_l	wrist_flex_l	wrist_dev_l
3.847458	-0.109881	-4.511962	80.473184	0.214085	0.887071	0.643863	2.156969	-0.544500	4.482380	7.971057	0.139121	27.662307	10.836908	0.000000	5.279050	-1.992016	-9.744399	17.144548	0.299229	31.930004	4.970309	0.000000	0.516486	0.257787	0.885967	0.959166	0.342857	0.941340	0.848534	0.626783	0.941340	0.590291	0.626783	0.775221	0.479609	0.525679	0.719848	0.295120	0.399312	0.664475	3.689205	2.916137	4.927483	0.000000	0.000000	28.420894	2.058242	-21.702383	19.154052	-12.480473	15.563946	114.312126	76.039045	-10.828535	15.641691	8.271416	-24.160875	65.085116	53.430511	54.886254	-12.643950	0.846655
3.864407	-0.259583	-4.475727	80.131858	0.214786	0.887168	0.643571	2.045618	-0.688849	4.832162	7.707167	0.134515	27.589064	10.897145	0.000000	5.184700	-1.871518	-10.225487	17.023963	0.297124	31.896689	4.957691	0.000000	0.516051	0.238928	0.925166	0.958359	0.317774	0.982989	0.847820	0.580929	0.982989	0.589795	0.580929	0.809520	0.479205	0.487221	0.751697	0.294872	0.370099	0.693875	3.686101	2.702797	5.145496	0.000000	0.000000	28.422903	2.232190	-21.566277	19.343613	-12.278456	15.544227	113.868287	76.486895	-10.660506	15.350303	7.728091	-24.411813	64.040357	53.822381	55.166630	-12.177265	1.279872
3.881356	-0.401525	-4.424232	79.816200	0.215445	0.887287	0.643261	1.902974	-0.824083	5.248678	7.411880	0.129362	27.509817	10.849361	0.000000	5.076359	-1.739729	-10.598960	16.899003	0.294943	31.843752	4.850686	0.000000	0.515244	0.221202	0.954052	0.956860	0.294198	1.013680	0.846495	0.537830	1.013680	0.588873	0.537830	0.834795	0.478456	0.451074	0.775167	0.294411	0.342641	0.715539	3.680337	2.502276	5.306148	0.000000	0.000000	28.424839	2.492434	-21.290648	19.562181	-12.080760	15.575792	113.411001	76.840506	-10.478300	15.127547	7.209992	-24.655716	63.069642	54.163100	55.449086	-11.728740	1.627972
3.898305	-0.528730	-4.359583	79.535386	0.216074	0.887432	0.642918	1.719601	-0.939771	5.767389	7.073829	0.123462	27.392667	10.621073	0.000000	4.953687	-1.613103	-10.907247	16.776278	0.292801	31.786533	4.736361	0.000000	0.513922	0.204941	0.974110	0.954404	0.272571	1.034992	0.844322	0.498293	1.034992	0.587361	0.498293	0.852347	0.477228	0.417915	0.791465	0.293655	0.317453	0.730583	3.670890	2.318331	5.417710	0.000000	0.000000	28.426425	2.796868	-20.941587	19.786761	-11.883748	15.625997	112.970837	76.998730	-10.259654	15.044854	6.746323	-24.892998	62.224403	54.451495	55.761596	-11.318742	1.895311
3.915254	-0.647213	-4.288697	79.295326	0.216648	0.887589	0.642572	1.520355	-1.047324	6.278579	6.731996	0.117495	27.270935	10.338508	0.000000	4.832880	-1.481634	-11.113185	16.669637	0.290940	31.721393	4.562958	0.000000	0.511925	0.188976	0.990616	0.950695	0.251338	1.052529	0.841041	0.459477	1.052529	0.585079	0.459477	0.866789	0.475373	0.385360	0.804875	0.292514	0.292724	0.742962	3.656627	2.137738	5.509507	0.000000	0.000000	28.427349	3.075435	-20.642863	19.983835	-11.703206	15.662693	112.592161	77.105816	-10.073161	15.106131	6.396430	-25.123686	61.609984	54.711866	56.032373	-11.015747	2.158443
3.932203	-0.741086	-4.218596	79.137448	0.217097	0.887749	0.642222	1.309838	-1.128528	6.735634	6.397414	0.111656	27.134833	9.997750	0.000000	4.720288	-1.352576	-11.124054	16.571465	0.289227	31.641907	4.267799	0.000000	0.509616	0.175638	0.995871	0.946407	0.233598	1.058113	0.837247	0.427045	1.058113	0.582440	0.427045	0.871387	0.473229	0.358160	0.809145	0.291194	0.272063	0.746903	3.640133	1.986847	5.538736	0.000000	0.000000	28.427589	3.349059	-20.306011	20.157126	-11.560628	15.701146	112.279923	76.988238	-9.869825	15.277840	6.159859	-25.336214	61.230782	54.922538	56.264954	-10.785826	2.343907
